<svg viewBox="0 0 188 37" fill="currentColor">
<path d="M0 35.7705V0H13.7792C16.2524 0 18.4366 0.432127 20.3316 1.29638C22.2588 2.16063 23.7684 3.44101 24.8605 5.13751C25.9525 6.83401 26.4985 8.93062 26.4985 11.4274C26.4985 13.8601 25.9365 15.9247 24.8123 17.6212C23.7202 19.3177 22.2106 20.614 20.2834 21.5103C18.3884 22.3746 16.2203 22.8067 13.7792 22.8067H7.46777V35.7705H0ZM7.46777 16.3248H13.8274C14.8874 16.3248 15.8028 16.1167 16.5736 15.7006C17.3445 15.2845 17.9387 14.7083 18.3563 13.9721C18.8059 13.2359 19.0308 12.3876 19.0308 11.4274C19.0308 10.4351 18.8059 9.57081 18.3563 8.83459C17.9387 8.09838 17.3445 7.52221 16.5736 7.10609C15.8028 6.68997 14.8874 6.4819 13.8274 6.4819H7.46777V16.3248Z" fill="#currentColor"/>
<path d="M29.7947 35.7705V9.55481H37.0215V35.7705H29.7947ZM29.7947 7.20211V0H37.0215V7.20211H29.7947Z" fill="currentColor"/>
<path d="M39.2747 35.7705L48.4769 22.6146L39.2265 9.55481H47.6097L54.5475 19.7338H50.8859L57.8237 9.55481H66.2068L56.9564 22.6146L66.1105 35.7705H57.7755L50.9822 25.5915H54.4511L47.6579 35.7705H39.2747Z" fill="currentColor"/>
<path d="M68.4246 35.7705V9.55481H75.1697V15.9407L74.447 14.8844C74.8324 12.8678 75.7639 11.3793 77.2414 10.4191C78.7189 9.45878 80.4854 8.97864 82.5411 8.97864C84.7252 8.97864 86.6363 9.5388 88.2744 10.6591C89.9446 11.7474 90.9885 13.2199 91.406 15.0764L89.3343 15.2685C90.2016 13.1239 91.4382 11.5394 93.0441 10.5151C94.6501 9.49079 96.5291 8.97864 98.6811 8.97864C100.576 8.97864 102.246 9.39476 103.692 10.227C105.169 11.0592 106.326 12.2276 107.161 13.732C107.996 15.2045 108.413 16.933 108.413 18.9176V35.7705H101.186V20.454C101.186 19.4297 100.994 18.5494 100.608 17.8132C100.255 17.077 99.741 16.5008 99.0665 16.0847C98.392 15.6686 97.573 15.4605 96.6094 15.4605C95.6779 15.4605 94.8589 15.6686 94.1523 16.0847C93.4777 16.5008 92.9478 17.077 92.5623 17.8132C92.209 18.5494 92.0324 19.4297 92.0324 20.454V35.7705H84.8055V20.454C84.8055 19.4297 84.6128 18.5494 84.2273 17.8132C83.874 17.077 83.3601 16.5008 82.6856 16.0847C82.0111 15.6686 81.1921 15.4605 80.2285 15.4605C79.297 15.4605 78.478 15.6686 77.7713 16.0847C77.0968 16.5008 76.5669 17.077 76.1814 17.8132C75.8281 18.5494 75.6515 19.4297 75.6515 20.454V35.7705H68.4246Z" fill="currentColor"/>
<path d="M120.348 36.3467C118.453 36.3467 116.815 36.0426 115.434 35.4344C114.052 34.8262 112.992 33.962 112.254 32.8416C111.515 31.6893 111.146 30.3289 111.146 28.7604C111.146 27.288 111.483 25.9916 112.157 24.8713C112.832 23.719 113.86 22.7587 115.241 21.9905C116.654 21.2222 118.405 20.6781 120.492 20.358L128.538 19.0616V24.3431L121.793 25.5435C120.765 25.7356 119.978 26.0717 119.432 26.5518C118.886 26.9999 118.613 27.6561 118.613 28.5204C118.613 29.3206 118.918 29.9448 119.529 30.3929C120.139 30.8411 120.894 31.0651 121.793 31.0651C122.982 31.0651 124.025 30.809 124.925 30.2969C125.824 29.7847 126.515 29.0965 126.997 28.2323C127.51 27.336 127.767 26.3597 127.767 25.3034V18.4854C127.767 17.4931 127.366 16.6609 126.563 15.9887C125.792 15.3165 124.732 14.9804 123.383 14.9804C122.098 14.9804 120.958 15.3325 119.962 16.0367C118.999 16.7409 118.292 17.6692 117.842 18.8215L112.061 16.0847C112.575 14.6123 113.394 13.3479 114.518 12.2916C115.642 11.2353 116.991 10.4191 118.565 9.84289C120.139 9.26672 121.857 8.97864 123.72 8.97864C125.937 8.97864 127.896 9.37875 129.598 10.179C131.301 10.9792 132.617 12.0996 133.549 13.54C134.512 14.9484 134.994 16.5969 134.994 18.4854V35.7705H128.249V31.5453L129.887 31.2572C129.116 32.4095 128.265 33.3698 127.334 34.138C126.402 34.8742 125.358 35.4184 124.202 35.7705C123.046 36.1546 121.761 36.3467 120.348 36.3467Z" fill="currentColor"/>
<path d="M139.331 35.7705V9.55481H146.076V15.8447L145.594 14.9324C146.172 12.7237 147.12 11.2353 148.437 10.4671C149.786 9.66684 151.376 9.26672 153.206 9.26672H154.748V15.5086H152.484C150.717 15.5086 149.288 16.0527 148.196 17.141C147.104 18.1973 146.558 19.7018 146.558 21.6544V35.7705H139.331Z" fill="currentColor"/>
<path d="M170.564 36.0586C167.384 36.0586 164.911 35.2103 163.144 33.5138C161.41 31.7853 160.543 29.3846 160.543 26.3117V15.7966H156.11V9.55481H156.351C157.7 9.55481 158.728 9.21871 159.435 8.54651C160.173 7.87431 160.543 6.86602 160.543 5.52162V3.60106H167.77V9.55481H173.937V15.7966H167.77V25.8316C167.77 26.7278 167.93 27.4801 168.251 28.0882C168.573 28.6644 169.07 29.0965 169.745 29.3846C170.419 29.6727 171.255 29.8168 172.25 29.8168C172.475 29.8168 172.732 29.8007 173.021 29.7687C173.31 29.7367 173.615 29.7047 173.937 29.6727V35.7705C173.455 35.8345 172.909 35.8985 172.298 35.9626C171.688 36.0266 171.11 36.0586 170.564 36.0586Z" fill="currentColor"/>
<path d="M180.773 35.7705V28.5684H188V35.7705H180.773Z" fill="currentColor"/>
</svg>
