<svg viewBox="0 0 150 150" fill="currentColor">
<path fill-rule="evenodd" clip-rule="evenodd" d="M99.9754 98.6999H73.6504C72.6754 98.6999 71.9254 97.9499 71.9254 96.9749C71.9254 96.0749 72.6754 95.2499 73.6504 95.2499H99.9754V82.4999H95.9254H95.8504H95.7754H95.7004H95.5504L95.4004 82.4249H95.2504H95.1004H95.0254L94.8754 82.3499H94.7254L94.5754 82.2749H94.5004H94.3504L94.2004 82.1999L94.1254 82.1249H93.9754C93.9004 82.0499 93.8254 82.0499 93.7504 81.9749C93.6004 81.9749 93.4504 81.8999 93.3754 81.8249C91.6504 80.9249 90.5254 79.1249 90.5254 77.0249V49.9499C90.5254 48.2249 91.2754 46.7249 92.4754 45.7499L92.6254 45.6749L92.7004 45.5999L92.7754 45.5249H92.8504L92.9254 45.4499L93.0004 45.3749H93.0754V45.2999H93.1504L93.2254 45.2249H93.3004L93.3754 45.1499H93.4504L93.5254 45.0749C94.2754 44.6999 95.1004 44.4749 95.9254 44.4749H99.9754V41.9249C99.9754 39.8999 98.4004 38.3249 96.3754 38.3249H53.6254C51.6004 38.3249 50.0254 39.8999 50.0254 41.9249V51.2999H76.3504C77.3254 51.2999 78.0754 52.0499 78.0754 53.0249C78.0754 53.9249 77.3254 54.7499 76.3504 54.7499H50.0254V67.4999H54.0754H54.1504H54.2254H54.3004H54.3754H54.4504L54.6004 67.5749H54.7504H54.8254H54.9004H54.9754H55.0504L55.1254 67.6499H55.2004H55.2754L55.4254 67.7249H55.5004H55.6504V67.7999H55.8004L55.8754 67.8749H55.9504H56.0254L56.1754 67.9499L56.2504 68.0249H56.4004V68.0999H56.4754H56.5504L56.6254 68.1749L56.7754 68.2499L56.8504 68.3249L57.0004 68.3999H57.0754L57.1504 68.4749L57.2254 68.5499L57.3004 68.6249L57.3754 68.6999L57.4504 68.7749L57.6004 68.8499H57.6754V68.9249H57.7504V68.9999H57.8254V69.0749C57.9004 69.1499 57.9754 69.2249 58.1254 69.2999V69.3749L58.2754 69.5249L58.3504 69.5999L58.4254 69.6749V69.7499L58.5004 69.8999L58.5754 69.9749L58.6504 70.0499C58.6504 70.1249 58.7254 70.1999 58.7254 70.2749L58.8004 70.3499L58.8754 70.4249V70.4999L58.9504 70.5749V70.6499L59.0254 70.7249V70.8749L59.1004 70.9499C59.1004 71.0249 59.1754 71.0999 59.1754 71.0999V71.1749V71.2499H59.2504V71.3249V71.3999V71.4749V71.5499C59.3254 71.5499 59.3254 71.6249 59.3254 71.6999L59.4004 71.8499V71.9999V72.1499V72.2249L59.4754 72.3749V72.5249V72.6749V72.8249V72.9749V96.8249V100.05C59.4754 100.35 59.4754 100.65 59.4004 100.875C59.4004 101.025 59.4004 101.175 59.3254 101.25C59.3254 101.4 59.2504 101.55 59.2504 101.7L59.1754 101.775V101.85V101.925L59.1004 102.075C59.1004 102.15 59.0254 102.225 59.0254 102.3L58.9504 102.375V102.45L58.8754 102.525L58.8004 102.6V102.675L58.7254 102.75V102.825V102.9H58.6504V102.975L58.5754 103.05V103.125H58.5004V103.2H58.4254V103.275C58.3504 103.35 58.3504 103.35 58.3504 103.425L58.2004 103.5L58.1254 103.575V103.65C57.1504 104.775 55.6504 105.525 54.0754 105.525H50.0254V108.075C50.0254 110.1 51.6004 111.675 53.6254 111.675H96.3754C98.4004 111.675 99.9754 110.1 99.9754 108.075V98.6999ZM58.6504 70.0499C58.6504 70.1249 58.7254 70.1999 58.7254 70.2749L58.6504 70.0499ZM103.5 138.975H46.5004C42.0754 138.975 38.4754 135.375 38.4754 131.025V121.5V105.525H26.9254H26.7754L26.6254 105.45H26.5504H26.4004H26.2504H26.1004L25.9504 105.375H25.8754H25.8004H25.7254L25.5754 105.3C23.2504 104.7 21.5254 102.6 21.5254 100.05V72.9749C21.5254 69.9749 23.9254 67.4999 26.9254 67.4999H38.4754V28.4999V18.9749C38.4754 14.6249 42.0754 11.0249 46.5004 11.0249H103.5C107.925 11.0249 111.525 14.6249 111.525 18.9749V28.4249V28.4999V28.5749V44.4749H123.075C126.075 44.4749 128.475 46.9499 128.475 49.9499V77.0249C128.475 80.0249 126.075 82.4999 123.075 82.4999H111.525V121.5V131.025C111.525 135.375 107.925 138.975 103.5 138.975ZM40.2004 102.075H44.7754L41.8504 99.1499L41.7754 99.0749L32.2504 89.5499L24.9004 96.9749V100.05V100.125V100.2V100.275V100.35L24.9754 100.425V100.5V100.575V100.65L25.0504 100.725V100.8V100.875H25.1254V100.95V101.025L25.2004 101.1V101.175H25.2754V101.25L25.3504 101.325L25.4254 101.4L25.5004 101.475L25.5754 101.55V101.625H25.6504L25.7254 101.7L25.8004 101.775H25.8754L25.9504 101.85H26.0254L26.1004 101.925H26.1754H26.2504V102H26.3254H26.4004H26.4754L26.5504 102.075H26.6254H26.7004H26.7754H26.8504H26.9254H40.2004ZM93.9754 77.3249V77.3999V77.4749V77.5499V77.6249C94.0504 77.6249 94.0504 77.6999 94.0504 77.7749V77.8499H94.1254V77.9249V77.9999H94.2004V78.0749L94.2754 78.1499V78.2249H94.3504V78.2999L94.4254 78.3749C94.5004 78.4499 94.5004 78.5249 94.5754 78.5249V78.5999C94.9504 78.8999 95.4754 79.0499 95.9254 79.0499H101.7H101.775H109.8H109.875H123.075C124.2 79.0499 125.1 78.1499 125.1 77.0249V49.9499C125.1 48.8249 124.2 47.9249 123.075 47.9249H95.9254C95.0254 47.9249 94.2004 48.5999 93.9754 49.4249V49.4999V49.5749V49.6499V49.7249V49.7999H93.9004V49.8749V49.9499V77.0249V77.0999V77.1749H93.9754V77.2499V77.3249ZM41.9254 105.525V119.775H108.075V82.4999H103.425V96.8999V96.9749V97.0499V108.075C103.425 111.975 100.275 115.125 96.3754 115.125H53.6254C49.7254 115.125 46.5754 111.975 46.5754 108.075V105.525H41.9254ZM41.9254 123.225V131.025C41.9254 133.5 43.9504 135.6 46.5004 135.6H103.5C106.05 135.6 108.075 133.5 108.075 131.025V123.225H41.9254ZM103.425 44.4749H108.075V30.2249H41.9254V67.4999H46.5754V41.9249C46.5754 38.0249 49.7254 34.8749 53.6254 34.8749H96.3754C100.275 34.8749 103.425 38.0249 103.425 41.9249V44.4749ZM108.075 26.7749V18.9749C108.075 16.4999 106.05 14.3999 103.5 14.3999H89.1004V15.8999C89.1004 18.6749 86.8504 20.8499 84.1504 20.8499H65.8504C63.1504 20.8499 60.9004 18.6749 60.9004 15.8999V14.3999H46.5004C43.9504 14.3999 41.9254 16.4999 41.9254 18.9749V26.7749H108.075ZM64.3504 14.3999V15.8999C64.3504 16.7999 65.0254 17.4749 65.8504 17.4749H84.1504C84.9754 17.4749 85.6504 16.7999 85.6504 15.8999V14.3999H64.3504ZM81.3754 131.1H68.0254C67.1254 131.1 66.3754 130.35 66.3754 129.375C66.3754 128.475 67.1254 127.725 68.0254 127.725H81.3754C82.3504 127.725 83.1004 128.475 83.1004 129.375C83.1004 130.35 82.3504 131.1 81.3754 131.1ZM49.5004 102.075H54.0754C55.1254 102.075 56.1004 101.175 56.1004 100.05V97.5749L50.9254 92.3999L45.4504 97.9499L48.6004 101.1L49.2004 101.7H49.2754V101.775C49.3504 101.85 49.4254 101.925 49.5004 102.075ZM56.1004 92.6999V72.9749C56.1004 72.5999 56.0254 72.2999 55.8754 72.0749C55.8004 71.9999 55.8004 71.9999 55.8004 71.9249L55.7254 71.8499V71.7749H55.6504V71.6999L55.5754 71.6249V71.5499H55.5004L55.4254 71.4749L55.3504 71.3999L55.2754 71.3249H55.2004V71.2499H55.1254L55.0504 71.1749H54.9754V71.0999H54.9004C54.6754 71.0249 54.3754 70.9499 54.0754 70.9499H26.9254C25.8004 70.9499 24.9004 71.8499 24.9004 72.9749V92.0999L31.0504 85.9499C31.7254 85.2749 32.8504 85.2749 33.4504 85.9499L43.0504 95.4749L49.7254 88.7999C50.4004 88.1249 51.5254 88.1249 52.1254 88.7999L56.1004 92.6999ZM93.9754 82.1249C93.9004 82.0499 93.8254 82.0499 93.7504 81.9749L93.9754 82.1249ZM43.5004 87.8999C39.8254 87.8999 36.8254 84.8999 36.8254 81.2249C36.8254 77.5499 39.8254 74.5499 43.5004 74.5499C47.1754 74.5499 50.1754 77.5499 50.1754 81.2249C50.1754 84.8999 47.1754 87.8999 43.5004 87.8999ZM43.5004 77.9249C41.7004 77.9249 40.2004 79.4249 40.2004 81.2249C40.2004 83.0249 41.7004 84.5249 43.5004 84.5249C45.3004 84.5249 46.8004 83.0249 46.8004 81.2249C46.8004 79.4249 45.3004 77.9249 43.5004 77.9249ZM119.25 57.2999H108.375C107.475 57.2999 106.65 56.5499 106.65 55.5749C106.65 54.6749 107.475 53.8499 108.375 53.8499H119.25C120.15 53.8499 120.9 54.6749 120.9 55.5749C120.9 56.5499 120.15 57.2999 119.25 57.2999ZM102.9 57.2999H99.8254C98.8504 57.2999 98.1004 56.5499 98.1004 55.5749C98.1004 54.6749 98.8504 53.8499 99.8254 53.8499H102.9C103.875 53.8499 104.625 54.6749 104.625 55.5749C104.625 56.5499 103.875 57.2999 102.9 57.2999ZM119.25 65.1749H116.475C115.5 65.1749 114.75 64.4249 114.75 63.5249C114.75 62.5499 115.5 61.7999 116.475 61.7999H119.25C120.15 61.7999 120.9 62.5499 120.9 63.5249C120.9 64.4249 120.15 65.1749 119.25 65.1749ZM109.5 65.1749H99.8254C98.8504 65.1749 98.1004 64.4249 98.1004 63.5249C98.1004 62.5499 98.8504 61.7999 99.8254 61.7999H109.5C110.4 61.7999 111.225 62.5499 111.225 63.5249C111.225 64.4249 110.4 65.1749 109.5 65.1749ZM119.25 73.1249H110.85C109.95 73.1249 109.125 72.3749 109.125 71.3999C109.125 70.4999 109.95 69.6749 110.85 69.6749H119.25C120.15 69.6749 120.9 70.4999 120.9 71.3999C120.9 72.3749 120.15 73.1249 119.25 73.1249ZM103.725 73.1249H99.8254C98.8504 73.1249 98.1004 72.3749 98.1004 71.3999C98.1004 70.4999 98.8504 69.6749 99.8254 69.6749H103.725C104.625 69.6749 105.45 70.4999 105.45 71.3999C105.45 72.3749 104.625 73.1249 103.725 73.1249Z" fill="currentColor"/>
</svg>
